<svg width="513" height="192" viewBox="0 0 513 192" fill="none" xmlns="http://www.w3.org/2000/svg">
<path fill-rule="evenodd" clip-rule="evenodd" d="M60.9475 22.9642C58.3385 21.8015 55.3055 21.2202 51.8456 21.2202H24.624V77.7921H52.7808C56.9764 77.7921 60.4786 77.1406 63.287 75.8347C66.0953 74.5288 68.1931 72.7146 69.5833 70.3893C70.9706 68.0667 71.6671 65.4016 71.6671 62.3938C71.6671 59.6164 71.0436 57.2489 69.7967 55.2914C68.5499 53.334 66.89 51.8175 64.8203 50.739C62.7505 49.6634 60.6105 49.04 58.3975 48.8687V47.5066C60.3803 47.2229 62.1832 46.5574 63.798 45.507C65.4128 44.4567 66.7018 43.0273 67.668 41.2103C68.6313 39.3961 69.1143 37.2701 69.1143 34.8296C69.1143 32.1645 68.4066 29.811 66.9883 27.7693C65.5701 25.7277 63.5565 24.1269 60.9475 22.9642ZM56.3531 37.8935C56.3531 39.9914 55.6734 41.6371 54.3113 42.8278C52.9492 44.0187 51.1322 44.614 48.8659 44.614H36.9556V31.2573H48.8659C51.135 31.2573 52.9492 31.8387 54.3113 33.0013C55.6734 34.164 56.3531 35.7956 56.3531 37.8935ZM58.6503 60.5234C58.6503 62.8488 57.9117 64.6348 56.4373 65.8818H56.4401C54.9629 67.1288 52.9521 67.7522 50.3993 67.7522H36.9584V53.2918H50.3993C53.0082 53.2918 55.0358 53.9462 56.4823 55.2492C57.9258 56.5552 58.6503 58.1981 58.6503 60.5234ZM256.483 77.6995V66.1346H334.267V77.6995H256.483ZM87.7423 76.1324C84.4537 74.3462 81.8868 71.7793 80.0445 68.4346C78.2022 65.0899 77.2811 61.0627 77.2811 56.3557C77.2811 51.6489 78.2022 47.72 80.0445 44.4033C81.8868 41.0867 84.4537 38.5618 87.7423 36.832C91.0308 35.102 94.8026 34.237 99.0572 34.237C103.312 34.237 107.151 35.102 110.414 36.832C113.675 38.5618 116.228 41.1007 118.07 44.4454C119.912 47.7931 120.833 51.7613 120.833 56.3557C120.833 60.9503 119.926 65.0196 118.112 68.3924C116.295 71.7682 113.717 74.3462 110.372 76.1324C107.025 77.9185 103.253 78.8116 99.0572 78.8116C94.8614 78.8116 91.0308 77.9185 87.7423 76.1324ZM104.331 67.8365C105.634 66.7018 106.586 65.1432 107.182 63.1576C107.777 61.1721 108.075 58.9339 108.075 56.4372C108.075 53.9406 107.763 51.8005 107.14 49.8431C106.516 47.8857 105.55 46.3411 104.247 45.2066C102.941 44.072 101.298 43.5046 99.3128 43.5046H98.8017C96.8161 43.5046 95.1732 44.086 93.8673 45.2486C92.5614 46.4114 91.5982 47.97 90.9747 49.9274C90.3512 51.8849 90.0395 54.0529 90.0395 56.4344C90.0395 60.2341 90.7641 63.3683 92.2076 65.8341C93.6511 68.2999 95.8219 69.5355 98.7145 69.5355H99.3942C101.38 69.5355 103.023 68.9682 104.328 67.8337L104.331 67.8365ZM129.214 68.4346C131.056 71.7793 133.623 74.3462 136.911 76.1324C140.2 77.9185 144.03 78.8116 148.226 78.8116C152.422 78.8116 156.193 77.9185 159.541 76.1324C162.886 74.3462 165.464 71.7682 167.281 68.3924C169.095 65.0196 170.002 60.9503 170.002 56.3557C170.002 51.7613 169.081 47.7931 167.238 44.4454C165.396 41.1007 162.843 38.5618 159.583 36.832C156.319 35.102 152.481 34.237 148.226 34.237C143.971 34.237 140.2 35.102 136.911 36.832C133.623 38.5618 131.056 41.0867 129.214 44.4033C127.371 47.72 126.45 51.6489 126.45 56.3557C126.45 61.0627 127.371 65.0899 129.214 68.4346ZM156.351 63.1576C155.756 65.1432 154.803 66.7018 153.5 67.8365L153.498 67.8337C152.192 68.9682 150.549 69.5355 148.563 69.5355H147.884C144.991 69.5355 142.82 68.2999 141.376 65.8341C139.933 63.3683 139.208 60.2341 139.208 56.4344C139.208 54.0529 139.52 51.8849 140.144 49.9274C140.767 47.97 141.73 46.4114 143.036 45.2486C144.342 44.086 145.985 43.5046 147.971 43.5046H148.482C150.467 43.5046 152.11 44.072 153.416 45.2066C154.718 46.3411 155.685 47.8857 156.309 49.8431C156.932 51.8005 157.244 53.9406 157.244 56.4372C157.244 58.9339 156.947 61.1721 156.351 63.1576ZM235.207 35.8097C237.165 36.86 238.723 38.4327 239.886 40.5306C241.048 42.6285 241.63 45.2374 241.63 48.3575V77.7921H229.211V51.2501C229.211 48.7562 228.602 46.942 227.383 45.8047C226.165 44.6701 224.561 44.1027 222.578 44.1027H222.154C220.284 44.1027 218.68 44.7712 217.349 46.1024C216.015 47.4363 215.349 49.4359 215.349 52.0983L215.434 77.7893H203.015V51.3344C203.015 48.7815 202.391 46.9392 201.145 45.8047C199.898 44.6701 198.308 44.1027 196.382 44.1027H195.958C194.028 44.1027 192.414 44.7712 191.107 46.1024C189.801 47.4363 189.15 49.4611 189.15 52.1853V77.7921H176.731V35.2564H188.981V36.1915C188.981 37.3262 188.896 38.2474 188.725 38.9551C188.554 39.6656 188.27 40.5278 187.875 41.5499L189.406 41.8899C190.424 39.2808 192.057 37.3543 194.297 36.1045C196.536 34.8576 199.159 34.2342 202.167 34.2342C205.175 34.2342 207.893 34.9307 209.993 36.3179C212.092 37.7081 213.398 39.7357 213.906 42.4009H215.097C216.115 39.9071 217.817 37.9215 220.199 36.4471C222.581 34.9728 225.446 34.2342 228.791 34.2342C231.116 34.2342 233.255 34.7593 235.212 35.8069L235.207 35.8097ZM51.1631 106.631H68.4318V96.5941H21.2202V106.631H38.5731V153.163H51.1631V106.631ZM94.9316 123.945C94.8474 123.917 94.7462 123.875 94.6339 123.819C92.1934 123.308 90.1798 123.052 88.5931 123.052C85.5853 123.052 83.2908 123.861 81.7013 125.476C80.1117 127.093 79.3198 129.632 79.3198 133.089V153.166H66.9012V110.633H79.067V111.908C79.067 112.874 78.9969 113.708 78.8536 114.419C78.7104 115.129 78.4717 116.023 78.1291 117.098L77.7893 118.118L79.1513 118.457C79.8871 116.244 80.8672 114.559 82.086 113.397C83.3049 112.234 84.7652 111.428 86.4671 110.973C88.169 110.521 90.2107 110.294 92.5922 110.294C93.1594 110.294 93.6565 110.307 94.0807 110.336C94.5047 110.364 94.9175 110.409 95.3136 110.462L95.2292 123.987C95.1141 123.987 95.0158 123.973 94.9316 123.945ZM101.821 143.466C103.323 146.814 105.477 149.437 108.286 151.335C111.094 153.236 114.309 154.185 117.941 154.185C121.401 154.185 124.279 153.391 126.577 151.804C128.874 150.214 130.446 148.4 131.297 146.359L132.659 146.783C132.092 148.313 131.724 149.903 131.553 151.546V153.163H143.972V110.63H131.553V111.055C131.553 111.964 131.598 112.7 131.682 113.268C131.766 113.835 131.893 114.458 132.064 115.138C132.12 115.478 132.204 115.804 132.32 116.115C132.432 116.43 132.572 116.784 132.744 117.18L131.382 117.435C130.416 115.393 128.787 113.579 126.489 111.99C124.192 110.403 121.345 109.608 117.941 109.608C114.309 109.608 111.105 110.546 108.328 112.417C105.547 114.287 103.393 116.924 101.863 120.328C100.332 123.732 99.5656 127.672 99.5656 131.983C99.5656 136.293 100.318 140.121 101.821 143.466ZM127.467 143.126C126.108 144.261 124.406 144.828 122.364 144.828L122.361 144.831H121.85C119.693 144.831 117.924 144.292 116.534 143.213C115.144 142.138 114.107 140.649 113.428 138.748C112.748 136.849 112.408 134.538 112.408 131.985C112.408 129.433 112.762 127.18 113.473 125.223C114.183 123.265 115.231 121.735 116.621 120.628C118.011 119.522 119.755 118.969 121.853 118.969H122.277C124.375 118.969 126.105 119.55 127.467 120.712C128.829 121.875 129.82 123.448 130.444 125.433C131.067 127.419 131.379 129.545 131.379 131.983C131.379 134.42 131.067 136.605 130.444 138.532C129.82 140.461 128.829 141.991 127.467 143.126ZM154.18 103.826C152.818 102.523 152.138 100.905 152.138 98.9758C152.138 97.0463 152.818 95.5186 154.18 94.2128C155.542 92.9097 157.213 92.2553 159.199 92.2553C161.184 92.2553 162.855 92.9068 164.217 94.2128C165.579 95.5186 166.258 97.1054 166.258 98.9758C166.258 100.846 165.579 102.52 164.217 103.826C162.855 105.132 161.181 105.783 159.199 105.783C157.216 105.783 155.539 105.132 154.18 103.826ZM165.408 110.631V153.163H152.989V110.631H165.408ZM186.672 111.481V110.63L186.67 110.628H174.079V153.16H186.499V127.214C186.499 125.627 186.866 124.251 187.605 123.088C188.341 121.928 189.321 121.033 190.54 120.409C191.759 119.786 193.107 119.474 194.581 119.474H194.837C197.05 119.474 198.85 120.083 200.24 121.302C201.627 122.524 202.324 124.268 202.324 126.534V153.16H214.743V124.153C214.743 120.808 214.161 118.059 212.999 115.902C211.836 113.748 210.235 112.161 208.194 111.139C206.151 110.119 203.771 109.608 201.049 109.608C197.589 109.608 194.583 110.347 192.032 111.821C189.479 113.298 187.72 115.225 186.757 117.606L185.31 117.095C185.822 116.076 186.176 115.169 186.375 114.374C186.574 113.579 186.672 112.616 186.672 111.481ZM224.614 103.826C223.252 102.523 222.572 100.905 222.572 98.9758C222.572 97.0463 223.252 95.5186 224.614 94.2128C225.976 92.9097 227.647 92.2553 229.633 92.2553C231.618 92.2553 233.289 92.9068 234.651 94.2128C236.013 95.5186 236.693 97.1054 236.693 98.9758C236.693 100.846 236.013 102.52 234.651 103.826C233.289 105.132 231.616 105.783 229.633 105.783C227.65 105.783 225.974 105.132 224.614 103.826ZM235.845 110.631V153.163H223.426V110.631H235.845ZM257.11 111.481V110.63L257.106 110.628H244.518V153.16H256.935V127.214C256.935 125.627 257.304 124.251 258.043 123.088C258.778 121.928 259.758 121.033 260.977 120.409C262.195 119.786 263.544 119.474 265.018 119.474H265.274C267.487 119.474 269.287 120.083 270.677 121.302C272.064 122.524 272.76 124.268 272.76 126.534V153.16H285.18V124.153C285.18 120.808 284.599 118.059 283.436 115.902C282.272 113.748 280.672 112.161 278.63 111.139C276.589 110.119 274.207 109.608 271.486 109.608C268.026 109.608 265.022 110.347 262.469 111.821C259.915 113.298 258.157 115.225 257.194 117.606L255.748 117.095C256.259 116.076 256.613 115.169 256.812 114.374C257.011 113.579 257.11 112.616 257.11 111.481ZM307.851 159.716C309.182 160.963 311.042 161.586 313.424 161.586H313.763C316.372 161.586 318.47 160.89 320.059 159.502C321.647 158.111 322.441 156 322.441 153.163V151.973C322.612 148.796 322.98 146.187 323.547 144.146L322.102 143.722C321.135 146.047 319.492 147.889 317.167 149.251C314.842 150.613 312.117 151.293 308.999 151.293C305.596 151.293 302.591 150.428 299.982 148.698C297.373 146.968 295.36 144.558 293.941 141.466C292.523 138.377 291.816 134.732 291.816 130.536C291.816 126.341 292.481 122.825 293.815 119.648C295.147 116.472 297.076 114.006 299.6 112.248C302.123 110.49 305.201 109.611 308.831 109.611C311.044 109.611 312.999 109.965 314.701 110.675C316.403 111.386 317.807 112.335 318.911 113.526C320.017 114.717 320.854 116.023 321.421 117.438L322.783 117.014C322.328 115.994 322.003 115.07 321.806 114.25C321.607 113.43 321.509 112.535 321.509 111.571V110.636H334.27V151.554C334.27 155.977 333.447 159.62 331.805 162.484C330.159 165.346 327.763 167.447 324.615 168.781C321.466 170.113 317.541 170.78 312.834 170.78C305.97 170.78 300.867 169.319 297.522 166.399C294.174 163.479 292.164 159.553 291.482 154.618H305.433C305.717 156.772 306.526 158.474 307.857 159.721L307.851 159.716ZM313.763 142.107C315.578 142.107 317.121 141.669 318.4 140.787C319.675 139.908 320.641 138.619 321.293 136.917C321.944 135.215 322.27 133.145 322.27 130.708C322.27 127.023 321.531 124.158 320.057 122.117C318.582 120.075 316.485 119.056 313.761 119.056H313.249C311.434 119.056 309.873 119.511 308.571 120.418C307.265 121.325 306.273 122.645 305.594 124.375C304.914 126.105 304.574 128.16 304.574 130.542C304.574 134.229 305.324 137.08 306.83 139.091C308.332 141.104 310.499 142.11 313.336 142.11H313.761L313.763 142.107ZM367.164 43.398L367.546 43.2716L367.549 43.266C368.532 46.2008 370.262 47.8577 373.233 47.8577C376.912 47.8577 378.845 44.9623 378.845 39.368V36.6354C378.845 31.0243 376.912 28.1457 373.25 28.1457C370.281 28.1457 368.549 29.8953 367.566 32.7739L367.2 32.611C367.875 30.4064 368.13 28.859 368.13 27.0364V22.0627H363.465V47.5712H368.057C368.038 46.7147 367.748 45.347 367.164 43.398ZM374.143 36.4219V39.6095C374.143 43.0358 373.196 44.6927 371.301 44.6927C369.243 44.6927 368.13 42.797 368.13 39.2079V36.8404C368.13 33.2345 369.243 31.3023 371.301 31.3023C373.196 31.3023 374.143 32.9592 374.143 36.4219ZM382.735 50.5424L384.922 50.3599C387.017 50.1969 387.618 49.6662 387.893 48.6103L388.186 47.5712L382.282 28.4405H387.093L389.606 38.9719C389.988 40.5559 390.28 42.0696 390.609 43.982H390.991C391.373 42.0499 391.684 40.5924 392.046 38.9719L394.414 28.4405H399.005L393.757 46.4984C392.099 52.2752 389.493 54.2045 383.298 54.3872L382.735 50.5424ZM368.512 66.1486V87.6664H373.266V66.1486H379.353V62.1579H362.407V66.1486H368.512ZM397.183 68.5329V87.6635H392.591C392.607 86.4419 392.828 85.3128 393.521 83.2712L393.155 83.1448C391.825 86.4784 389.875 87.9556 387.143 87.9556C384.082 87.9556 382.532 86.3155 382.532 83.1448V68.5329H387.176V82.1619C387.176 83.7823 387.867 84.6585 389.199 84.6585C391.204 84.6585 392.532 82.3444 392.532 78.8452V68.5329H397.178H397.183ZM401.639 83.9313V87.6663H416.727V83.9313H410.568V80.0501C410.568 75.0568 412.609 73.4364 417.692 73.1442L417.092 67.9516C414.031 68.0611 411.825 69.6281 410.023 73.9474L409.621 73.8211C410.133 71.1419 410.312 69.8304 410.295 68.5357H401.822V72.2708H405.939V83.9313H401.639ZM422.402 87.6664V83.9313H427.976V72.2708H422.585V68.5357H432.625V83.9313H437.946V87.6664H422.405H422.402ZM427.36 66.3115V62.1579H433.226V66.3115H427.36ZM442.64 68.5357V87.6663H442.642H447.287V77.354C447.287 73.8548 448.616 71.5406 450.621 71.5406C451.949 71.5406 452.642 72.4169 452.642 74.0373V87.6663H457.288V73.0346C457.288 69.8837 455.74 68.2436 452.679 68.2436C449.946 68.2436 447.998 69.7208 446.666 73.0544L446.301 72.928C446.995 70.8863 447.214 69.7573 447.231 68.5357H442.64ZM461.82 88.5229L466.499 87.7562C466.536 90.017 467.502 91.2555 469.47 91.2555C471.44 91.2555 472.349 90.0338 472.442 87.8489L472.458 87.1749C472.532 85.7342 472.767 84.6417 473.388 82.8387L473.023 82.7124C471.894 85.5741 470.291 86.9755 467.449 86.9755C463.75 86.9755 461.802 84.1699 461.802 78.8845V76.3878C461.802 71.0857 463.75 68.2436 467.449 68.2436C470.347 68.2436 471.967 69.7377 473.023 72.7988L473.388 72.6724C472.804 70.7233 472.532 69.3753 472.515 68.5357H477.087V87.1018C477.087 92.0586 474.335 94.4823 469.527 94.4823C464.719 94.4823 462.109 92.5136 461.82 88.5229ZM472.422 78.3902V76.8401C472.422 73.3605 471.329 71.4114 469.324 71.4114C467.466 71.4114 466.555 73.0685 466.555 76.4217V78.7891C466.555 82.1423 467.466 83.8188 469.324 83.8188C471.329 83.8188 472.422 81.8502 472.422 78.3902ZM362.626 112.271V117.736H362.623C362.623 124.678 365.302 128.194 370.861 128.194C375.87 128.194 378.968 125.369 379.078 118.427L374.432 117.387C374.396 122.836 373.138 124.439 370.969 124.439C368.602 124.439 367.453 122.58 367.453 118.626V111.338C367.453 107.384 368.586 105.525 370.953 105.525C373.178 105.525 374.306 107.092 374.342 112.268L378.898 111.467C378.825 104.671 375.927 101.829 370.843 101.829C365.342 101.829 362.626 105.328 362.626 112.271ZM382.863 119.196V117.174C382.863 111.543 385.633 108.19 390.626 108.19C395.618 108.19 398.424 111.543 398.424 117.174V119.196C398.424 124.807 395.655 128.197 390.626 128.197C385.595 128.197 382.863 124.807 382.863 119.196ZM393.63 119.906V116.5C393.63 113.057 392.664 111.434 390.642 111.434C388.621 111.434 387.654 113.054 387.654 116.5V119.906C387.654 123.333 388.621 124.953 390.642 124.953C392.664 124.953 393.63 123.333 393.63 119.906ZM406.004 105.983V120.3C406.004 125.784 407.989 128.135 412.581 128.135C414.368 128.135 415.845 127.736 416.864 127.043L417.137 123.218C416.263 123.765 415.134 124.001 414.058 124.001C411.708 124.001 410.653 122.782 410.653 119.957V102.247H400.138V105.983H406.004ZM422.035 120.3V105.983H416.167V102.247H426.682V119.957C426.682 122.782 427.738 124.001 430.089 124.001C431.165 124.001 432.293 123.765 433.166 123.218L432.894 127.043C431.874 127.736 430.398 128.135 428.612 128.135C424.02 128.135 422.035 125.784 422.035 120.3ZM451.252 121.763L446.807 121.198C446.628 123.914 445.568 124.99 443.766 124.99C441.524 124.99 440.413 123.35 440.413 119.943V119.143H451.162C451.252 118.303 451.289 117.32 451.289 116.537C451.289 111.181 448.63 108.173 443.783 108.173C438.571 108.173 435.801 111.434 435.801 117.41V119.013C435.801 124.953 438.553 128.214 443.71 128.214C448.028 128.214 450.815 126.009 451.252 121.763ZM446.644 116.298H440.413C440.466 113.037 441.541 111.397 443.71 111.397C445.698 111.397 446.644 112.762 446.644 115.66V116.298ZM455.477 128.615L460.156 127.849C460.191 130.109 461.157 131.348 463.126 131.348C465.095 131.348 466.004 130.126 466.097 127.941L466.115 127.267C466.187 125.827 466.424 124.734 467.044 122.931L466.678 122.805C465.55 125.666 463.946 127.068 461.104 127.068C457.405 127.068 455.457 124.262 455.457 118.977V116.48C455.457 111.178 457.405 108.336 461.104 108.336C464.002 108.336 465.622 109.83 466.678 112.891L467.044 112.765C466.459 110.816 466.187 109.468 466.17 108.628H470.743V127.194C470.743 132.151 467.99 134.575 463.182 134.575C458.374 134.575 455.766 132.606 455.477 128.615ZM466.077 118.483V116.932C466.077 113.453 464.986 111.504 462.981 111.504C461.121 111.504 460.211 113.161 460.211 116.514V118.882C460.211 122.235 461.121 123.911 462.981 123.911C464.986 123.911 466.077 121.943 466.077 118.483ZM490.778 121.763L486.332 121.198C486.152 123.914 485.093 124.99 483.29 124.99C481.05 124.99 479.937 123.35 479.937 119.943V119.143H490.688C490.778 118.303 490.814 117.32 490.814 116.537C490.814 111.181 488.155 108.173 483.307 108.173C478.095 108.173 475.325 111.434 475.325 117.41V119.013C475.325 124.953 478.077 128.214 483.234 128.214C487.554 128.214 490.339 126.009 490.778 121.763ZM486.166 116.298H479.934C479.987 113.037 481.063 111.397 483.231 111.397C485.219 111.397 486.166 112.762 486.166 115.66V116.298Z" fill="currentColor"/>
</svg>
